#!OML:ASF Y:\EmotionMaleHayes\Project 1\Capture day 1\Session 1\Male1.ASF
:FULLY-SPECIFIED
:DEGREES
371
root -25.8901 16.7783 0.291866 -12.5764 78.1729 -10.4443
lowerback 5.20958 3.20037 -11.821
upperback 6.18581 4.33707 -3.71198
thorax 3.06616 1.92376 2.57388
lowerneck -18.2472 3.85284 5.34995
upperneck 25.4577 3.92942 0.847167
head 11.4162 2.51962 0.029853
rclavicle -9.93923e-015 -3.97569e-014
rhumerus -48.5734 11.7172 -88.774
rradius 59.0875
rwrist -2.75806
rhand -6.48144 -30.1984
rfingers 7.12502
rthumb 19.3695 -59.2537
lclavicle -9.93923e-015 -3.97569e-014
lhumerus -19.7671 -14.2382 72.1779
lradius 73.2288
lwrist 5.66875
lhand -22.5046 -20.6817
lfingers 7.12502
lthumb 3.92151 9.26199
rfemur -5.44298 -8.52945 14.7976
rtibia 10.781
rfoot -8.17356 -4.01899
rtoes 13.7057
lfemur 19.3754 0.526976 -16.7742
ltibia 13.3737
lfoot -22.2508 14.9408
ltoes -17.8732
372
root -25.823 16.7947 0.330698 -13.8534 78.4689 -11.712
lowerback 4.98904 3.10961 -11.7454
upperback 6.1842 4.2389 -3.50159
thorax 3.18672 1.86267 2.76999
lowerneck -17.9029 3.81627 4.88562
upperneck 24.9756 3.86856 1.44328
head 11.1402 2.51602 0.299264
rclavicle 2.8625e-014 -9.85972e-014
rhumerus -48.8153 11.7301 -88.4493
rradius 59.5645
rwrist -1.81313
rhand -7.01977 -30.0692
rfingers 7.12502
rthumb 18.8518 -59.1757
lclavicle 2.8625e-014 -9.85972e-014
lhumerus -19.3975 -14.1916 72.2697
lradius 72.9098
lwrist 5.89976
lhand -22.4848 -20.8737
lfingers 7.12502
lthumb 3.94062 9.0696
rfemur -4.87547 -8.54052 15.012
rtibia 10.4107
rfoot -8.33606 -4.16367
rtoes 14.1917
lfemur 19.4441 0.243231 -16.4226
ltibia 13.6667
lfoot -21.8256 14.9878
ltoes -19.0078
373
root -25.7534 16.8104 0.368331 -14.73 78.9056 -12.5839
lowerback 4.87706 2.94584 -11.7607
upperback 6.10616 4.01706 -3.33437
thorax 3.18119 1.74639 2.96653
lowerneck -18.5133 3.94189 5.09682
upperneck 25.4899 3.94981 1.42968
head 11.463 2.57915 0.294979
rclavicle -9.93923e-015 3.18055e-015
rhumerus -48.0618 12.0844 -88.1588
rradius 59.0406
rwrist -1.28962
rhand -7.39338 -29.9993
rfingers 7.12502
rthumb 18.4924 -59.1403
lclavicle -9.93923e-015 3.18055e-015
lhumerus -19.4468 -14.0539 72.4377
lradius 72.8125
lwrist 5.9879
lhand -22.7876 -21.1025
lfingers 7.12502
lthumb 3.64823 8.84599
rfemur -4.26361 -8.69118 15.0378
rtibia 10.0242
rfoot -8.39144 -4.33035
rtoes 15.0947
lfemur 19.4619 -0.0372621 -16.2061
ltibia 13.9994
lfoot -21.2975 14.9037
ltoes -19.8112
374
root -25.684 16.8245 0.407026 -16.8094 79.2144 -14.7436
lowerback 4.70826 2.83294 -11.493
upperback 5.97361 3.86429 -3.11054
thorax 3.14759 1.67437 3.06658
lowerneck -18.8671 3.88241 5.12299
upperneck 25.7686 3.81468 1.49809
head 11.6368 2.5348 0.308029
rclavicle 1.27222e-014 4.92986e-014
rhumerus -48.277 12.0933 -87.8549
rradius 59.3825
rwrist -0.763102
rhand -7.72202 -29.6249
rfingers 7.12502
rthumb 18.1763 -58.7957
lclavicle 1.27222e-014 4.92986e-014
lhumerus -19.2309 -14.0881 72.5713
lradius 72.4328
lwrist 6.33128
lhand -22.6884 -21.216
lfingers 7.12502
lthumb 3.74396 8.73089
rfemur -3.70387 -8.81786 15.4178
rtibia 9.5669
rfoot -8.43791 -4.5246
rtoes 15.4732
lfemur 19.5255 -0.463849 -15.7655
ltibia 14.1202
lfoot -20.795 14.878
ltoes -20.4358
375
root -25.6124 16.8326 0.442562 -18.6708 79.4798 -16.756
lowerback 4.44018 2.78039 -11.1902
upperback 5.82668 3.80558 -2.91102
thorax 3.14533 1.64966 3.12244
lowerneck -18.9002 3.77621 5.04067
upperneck 25.6999 3.66226 1.57451
head 11.6104 2.46714 0.325396
rclavicle -1.66979e-014 -4.77083e-015
rhumerus -48.3799 11.8781 -87.5138
rradius 59.693
rwrist -0.406117
rhand -8.0681 -29.5959
rfingers 7.12502
rthumb 17.8433 -58.7973
lclavicle -1.66979e-014 -4.77083e-015
lhumerus -19.1026 -14.3306 72.7388
lradius 72.099
lwrist 6.69602
lhand -22.203 -21.334
lfingers 7.12502
lthumb 4.21275 8.60407
rfemur -3.25682 -8.98335 15.7299
rtibia 9.16453
rfoot -8.61844 -4.60556
rtoes 16.5435
lfemur 19.5248 -0.876421 -15.3802
ltibia 14.256
lfoot -20.5511 14.8046
ltoes -20.0552
